# xmcd
#
# Track frame offsets: 
#        150
#        18320
#        39502
#        47872
#        68732
#        95882
#        118087
#        140637
#        170947
#        195240
#        230182
#        259412
#        285212
#        294212
#
# Disc length: 4292 seconds
#
# Revision: 0
# Processed by: cddbd v1.5.2PL0 Copyright (c) Steve Scherf et al.
# Submitted via: ExactAudioCopy v1.0b3
#
DISCID=d410c20e
DTITLE=Royal Hunt - On The Mission 2002
DYEAR=2002
DGENRE=Metal
TTITLE0=Flight
TTITLE1=Land Of Broken Hearts
TTITLE2=Martial Arts(Instrumental)
TTITLE3=Clown In The Mirror
TTITLE4=Epilogue
TTITLE5=Time
TTITLE6=Far Away
TTITLE7=Message To God
TTITLE8=Cold City Lights
TTITLE9=Lies
TTITLE10=World Wide War
TTITLE11=Surrender
TTITLE12=Clean Sweep
TTITLE13=U-Turn(Instrumental Version)
EXTD=
EXTT0=
EXTT1=
EXTT2=
EXTT3=
EXTT4=
EXTT5=
EXTT6=
EXTT7=
EXTT8=
EXTT9=
EXTT10=
EXTT11=
EXTT12=
EXTT13=
PLAYORDER=
